<?xml version="1.0" encoding="UTF-8" standalone="no"?>
<!DOCTYPE svg PUBLIC "-//W3C//DTD SVG 1.1//EN"
 "http://www.w3.org/Graphics/SVG/1.1/DTD/svg11.dtd">
<!-- Generated by graphviz version 2.38.0 (20140413.2041)
 -->
<!-- Title: G Pages: 1 -->
<svg width="1241pt" height="1364pt"
 viewBox="0.00 0.00 1240.76 1364.00" xmlns="http://www.w3.org/2000/svg" xmlns:xlink="http://www.w3.org/1999/xlink">
<g id="graph0" class="graph" transform="scale(1 1) rotate(0) translate(4 1360)">
<title>G</title>
<polygon fill="white" stroke="none" points="-4,4 -4,-1360 1236.76,-1360 1236.76,4 -4,4"/>
<g id="clust1" class="cluster"><title>cluster_Global</title>
<path fill="none" stroke="gray" d="M321.221,-98C321.221,-98 1212.76,-98 1212.76,-98 1218.76,-98 1224.76,-104 1224.76,-110 1224.76,-110 1224.76,-1336 1224.76,-1336 1224.76,-1342 1218.76,-1348 1212.76,-1348 1212.76,-1348 321.221,-1348 321.221,-1348 315.221,-1348 309.221,-1342 309.221,-1336 309.221,-1336 309.221,-110 309.221,-110 309.221,-104 315.221,-98 321.221,-98"/>
<text text-anchor="middle" x="766.991" y="-1335.2" font-family="Times,serif" font-size="11.00" fill="gray">Global</text>
</g>
<g id="clust2" class="cluster"><title>cluster_\Teknoo</title>
<path fill="none" stroke="gray" d="M329.221,-106C329.221,-106 1204.76,-106 1204.76,-106 1210.76,-106 1216.76,-112 1216.76,-118 1216.76,-118 1216.76,-1308 1216.76,-1308 1216.76,-1314 1210.76,-1320 1204.76,-1320 1204.76,-1320 329.221,-1320 329.221,-1320 323.221,-1320 317.221,-1314 317.221,-1308 317.221,-1308 317.221,-118 317.221,-118 317.221,-112 323.221,-106 329.221,-106"/>
<text text-anchor="middle" x="766.991" y="-1307.2" font-family="Times,serif" font-size="11.00" fill="gray">Teknoo</text>
</g>
<g id="clust3" class="cluster"><title>cluster_\Teknoo\States</title>
<path fill="none" stroke="gray" d="M337.221,-114C337.221,-114 1196.76,-114 1196.76,-114 1202.76,-114 1208.76,-120 1208.76,-126 1208.76,-126 1208.76,-1280 1208.76,-1280 1208.76,-1286 1202.76,-1292 1196.76,-1292 1196.76,-1292 337.221,-1292 337.221,-1292 331.221,-1292 325.221,-1286 325.221,-1280 325.221,-1280 325.221,-126 325.221,-126 325.221,-120 331.221,-114 337.221,-114"/>
<text text-anchor="middle" x="766.991" y="-1279.2" font-family="Times,serif" font-size="11.00" fill="gray">States</text>
</g>
<g id="clust4" class="cluster"><title>cluster_\Teknoo\States\Exception</title>
<path fill="none" stroke="gray" d="M345.221,-716C345.221,-716 842.761,-716 842.761,-716 848.761,-716 854.761,-722 854.761,-728 854.761,-728 854.761,-992 854.761,-992 854.761,-998 848.761,-1004 842.761,-1004 842.761,-1004 345.221,-1004 345.221,-1004 339.221,-1004 333.221,-998 333.221,-992 333.221,-992 333.221,-728 333.221,-728 333.221,-722 339.221,-716 345.221,-716"/>
<text text-anchor="middle" x="593.991" y="-991.2" font-family="Times,serif" font-size="11.00" fill="gray">Exception</text>
</g>
<g id="clust5" class="cluster"><title>cluster_\Teknoo\States\State</title>
<path fill="none" stroke="gray" d="M662.261,-1012C662.261,-1012 1131.76,-1012 1131.76,-1012 1137.76,-1012 1143.76,-1018 1143.76,-1024 1143.76,-1024 1143.76,-1252 1143.76,-1252 1143.76,-1258 1137.76,-1264 1131.76,-1264 1131.76,-1264 662.261,-1264 662.261,-1264 656.261,-1264 650.261,-1258 650.261,-1252 650.261,-1252 650.261,-1024 650.261,-1024 650.261,-1018 656.261,-1012 662.261,-1012"/>
<text text-anchor="middle" x="897.011" y="-1251.2" font-family="Times,serif" font-size="11.00" fill="gray">State</text>
</g>
<g id="clust6" class="cluster"><title>cluster_\Teknoo\States\State\Exception</title>
<path fill="none" stroke="gray" d="M979.761,-1066C979.761,-1066 1123.76,-1066 1123.76,-1066 1129.76,-1066 1135.76,-1072 1135.76,-1078 1135.76,-1078 1135.76,-1180 1135.76,-1180 1135.76,-1186 1129.76,-1192 1123.76,-1192 1123.76,-1192 979.761,-1192 979.761,-1192 973.761,-1192 967.761,-1186 967.761,-1180 967.761,-1180 967.761,-1078 967.761,-1078 967.761,-1072 973.761,-1066 979.761,-1066"/>
<text text-anchor="middle" x="1051.76" y="-1179.2" font-family="Times,serif" font-size="11.00" fill="gray">Exception</text>
</g>
<g id="clust7" class="cluster"><title>cluster_\Teknoo\States\Proxy</title>
<path fill="none" stroke="gray" d="M662.261,-122C662.261,-122 1188.76,-122 1188.76,-122 1194.76,-122 1200.76,-128 1200.76,-134 1200.76,-134 1200.76,-696 1200.76,-696 1200.76,-702 1194.76,-708 1188.76,-708 1188.76,-708 662.261,-708 662.261,-708 656.261,-708 650.261,-702 650.261,-696 650.261,-696 650.261,-134 650.261,-134 650.261,-128 656.261,-122 662.261,-122"/>
<text text-anchor="middle" x="925.511" y="-695.2" font-family="Times,serif" font-size="11.00" fill="gray">Proxy</text>
</g>
<g id="clust8" class="cluster"><title>cluster_\Teknoo\States\Proxy\Exception</title>
<path fill="none" stroke="gray" d="M922.761,-446C922.761,-446 1180.76,-446 1180.76,-446 1186.76,-446 1192.76,-452 1192.76,-458 1192.76,-458 1192.76,-668 1192.76,-668 1192.76,-674 1186.76,-680 1180.76,-680 1180.76,-680 922.761,-680 922.761,-680 916.761,-680 910.761,-674 910.761,-668 910.761,-668 910.761,-458 910.761,-458 910.761,-452 916.761,-446 922.761,-446"/>
<text text-anchor="middle" x="1051.76" y="-667.2" font-family="Times,serif" font-size="11.00" fill="gray">Exception</text>
</g>
<!-- \\Teknoo\\States\\Exception\\IllegalArgument -->
<g id="node1" class="node"><title>\\Teknoo\\States\\Exception\\IllegalArgument</title>
<polygon fill="none" stroke="black" points="459.221,-814 341.221,-814 341.221,-778 459.221,-778 459.221,-814"/>
<text text-anchor="middle" x="400.221" y="-793.2" font-family="Courier,monospace" font-size="11.00">IllegalArgument</text>
</g>
<!-- \\InvalidArgumentException -->
<g id="node24" class="node"><title>\\InvalidArgumentException</title>
<ellipse fill="none" stroke="black" cx="109.84" cy="-773" rx="109.681" ry="18"/>
<text text-anchor="middle" x="109.84" y="-769.3" font-family="Times,serif" font-size="14.00" fill="gray">\InvalidArgumentException</text>
</g>
<!-- \\Teknoo\\States\\Exception\\IllegalArgument&#45;&gt;\\InvalidArgumentException -->
<g id="edge1" class="edge"><title>\\Teknoo\\States\\Exception\\IllegalArgument&#45;&gt;\\InvalidArgumentException</title>
<path fill="none" stroke="black" d="M341.21,-791.373C306.186,-788.58 260.447,-784.932 218.964,-781.623"/>
<polygon fill="none" stroke="black" points="219.044,-778.119 208.798,-780.813 218.488,-785.097 219.044,-778.119"/>
</g>
<!-- \\Teknoo\\States\\Exception\\IllegalName -->
<g id="node2" class="node"><title>\\Teknoo\\States\\Exception\\IllegalName</title>
<polygon fill="none" stroke="black" points="759.261,-814 668.261,-814 668.261,-778 759.261,-778 759.261,-814"/>
<text text-anchor="middle" x="713.761" y="-793.2" font-family="Courier,monospace" font-size="11.00">IllegalName</text>
</g>
<!-- \\Teknoo\\States\\Exception\\IllegalName&#45;&gt;\\Teknoo\\States\\Exception\\IllegalArgument -->
<g id="edge2" class="edge"><title>\\Teknoo\\States\\Exception\\IllegalName&#45;&gt;\\Teknoo\\States\\Exception\\IllegalArgument</title>
<path fill="none" stroke="black" d="M668.125,-796C616.196,-796 529.883,-796 469.512,-796"/>
<polygon fill="none" stroke="black" points="469.307,-792.5 459.307,-796 469.307,-799.5 469.307,-792.5"/>
</g>
<!-- \\Teknoo\\States\\Exception\\StateNotFound -->
<g id="node3" class="node"><title>\\Teknoo\\States\\Exception\\StateNotFound</title>
<polygon fill="none" stroke="black" points="765.761,-868 661.761,-868 661.761,-832 765.761,-832 765.761,-868"/>
<text text-anchor="middle" x="713.761" y="-847.2" font-family="Courier,monospace" font-size="11.00">StateNotFound</text>
</g>
<!-- \\Teknoo\\States\\Exception\\Standard -->
<g id="node4" class="node"><title>\\Teknoo\\States\\Exception\\Standard</title>
<polygon fill="none" stroke="black" points="435.721,-868 364.721,-868 364.721,-832 435.721,-832 435.721,-868"/>
<text text-anchor="middle" x="400.221" y="-847.2" font-family="Courier,monospace" font-size="11.00">Standard</text>
</g>
<!-- \\Teknoo\\States\\Exception\\StateNotFound&#45;&gt;\\Teknoo\\States\\Exception\\Standard -->
<g id="edge3" class="edge"><title>\\Teknoo\\States\\Exception\\StateNotFound&#45;&gt;\\Teknoo\\States\\Exception\\Standard</title>
<path fill="none" stroke="black" d="M661.666,-850C601.7,-850 503.215,-850 446.083,-850"/>
<polygon fill="none" stroke="black" points="445.915,-846.5 435.915,-850 445.915,-853.5 445.915,-846.5"/>
</g>
<!-- \\Exception -->
<g id="node25" class="node"><title>\\Exception</title>
<ellipse fill="none" stroke="black" cx="109.84" cy="-850" rx="40.8928" ry="18"/>
<text text-anchor="middle" x="109.84" y="-846.3" font-family="Times,serif" font-size="14.00" fill="gray">xception</text>
</g>
<!-- \\Teknoo\\States\\Exception\\Standard&#45;&gt;\\Exception -->
<g id="edge4" class="edge"><title>\\Teknoo\\States\\Exception\\Standard&#45;&gt;\\Exception</title>
<path fill="none" stroke="black" d="M364.435,-850C313.701,-850 219.13,-850 160.911,-850"/>
<polygon fill="none" stroke="black" points="160.835,-846.5 150.835,-850 160.835,-853.5 160.835,-846.5"/>
</g>
<!-- \\Teknoo\\States\\Exception\\MethodNotImplemented -->
<g id="node5" class="node"><title>\\Teknoo\\States\\Exception\\MethodNotImplemented</title>
<polygon fill="none" stroke="black" points="789.761,-922 637.761,-922 637.761,-886 789.761,-886 789.761,-922"/>
<text text-anchor="middle" x="713.761" y="-901.2" font-family="Courier,monospace" font-size="11.00">MethodNotImplemented</text>
</g>
<!-- \\BadFunctionCallException -->
<g id="node26" class="node"><title>\\BadFunctionCallException</title>
<ellipse fill="none" stroke="black" cx="400.221" cy="-72" rx="108.581" ry="18"/>
<text text-anchor="middle" x="400.221" y="-68.3" font-family="Times,serif" font-size="14.00" fill="gray">\BadFunctionCallException</text>
</g>
<!-- \\Teknoo\\States\\Exception\\MethodNotImplemented&#45;&gt;\\BadFunctionCallException -->
<g id="edge5" class="edge"><title>\\Teknoo\\States\\Exception\\MethodNotImplemented&#45;&gt;\\BadFunctionCallException</title>
<path fill="none" stroke="black" d="M637.521,-903.339C616.782,-899.557 595.862,-891.836 580.761,-877 523.019,-820.269 427.202,-235.676 405.626,-100.01"/>
<polygon fill="none" stroke="black" points="409.061,-99.3244 404.039,-89.9956 402.147,-100.42 409.061,-99.3244"/>
</g>
<!-- \\Teknoo\\States\\Exception\\InvalidArgument -->
<g id="node6" class="node"><title>\\Teknoo\\States\\Exception\\InvalidArgument</title>
<polygon fill="none" stroke="black" points="772.761,-976 654.761,-976 654.761,-940 772.761,-940 772.761,-976"/>
<text text-anchor="middle" x="713.761" y="-955.2" font-family="Courier,monospace" font-size="11.00">InvalidArgument</text>
</g>
<!-- \\Teknoo\\States\\Exception\\InvalidArgument&#45;&gt;\\InvalidArgumentException -->
<g id="edge6" class="edge"><title>\\Teknoo\\States\\Exception\\InvalidArgument&#45;&gt;\\InvalidArgumentException</title>
<path fill="none" stroke="black" d="M654.496,-957.641C629.494,-954.763 601.361,-947.562 580.761,-931 519.356,-881.631 574.827,-811.934 508.761,-769 404.805,-701.442 251.058,-730.565 168.41,-754.021"/>
<polygon fill="none" stroke="black" points="167.317,-750.694 158.692,-756.847 169.271,-757.416 167.317,-750.694"/>
</g>
<!-- \\Teknoo\\States\\Exception\\AvailableSeveralMethodImplementations -->
<g id="node7" class="node"><title>\\Teknoo\\States\\Exception\\AvailableSeveralMethodImplementations</title>
<polygon fill="none" stroke="black" points="846.761,-760 580.761,-760 580.761,-724 846.761,-724 846.761,-760"/>
<text text-anchor="middle" x="713.761" y="-739.2" font-family="Courier,monospace" font-size="11.00">AvailableSeveralMethodImplementations</text>
</g>
<!-- \\BadMethodCallException -->
<g id="node27" class="node"><title>\\BadMethodCallException</title>
<ellipse fill="none" stroke="black" cx="400.221" cy="-18" rx="105.082" ry="18"/>
<text text-anchor="middle" x="400.221" y="-14.3" font-family="Times,serif" font-size="14.00" fill="gray">\BadMethodCallException</text>
</g>
<!-- \\Teknoo\\States\\Exception\\AvailableSeveralMethodImplementations&#45;&gt;\\BadMethodCallException -->
<g id="edge7" class="edge"><title>\\Teknoo\\States\\Exception\\AvailableSeveralMethodImplementations&#45;&gt;\\BadMethodCallException</title>
<path fill="none" stroke="black" d="M594.408,-723.917C589.424,-720.51 584.824,-716.564 580.761,-712 382.496,-489.303 704.508,-269.915 508.761,-45 504.794,-40.4419 500.183,-36.5957 495.146,-33.3553"/>
<polygon fill="none" stroke="black" points="496.747,-30.2412 486.304,-28.4552 493.354,-36.3638 496.747,-30.2412"/>
</g>
<!-- \\Teknoo\\States\\State\\Exception\\MethodNotImplemented -->
<g id="node8" class="node"><title>\\Teknoo\\States\\State\\Exception\\MethodNotImplemented</title>
<polygon fill="none" stroke="black" points="1127.76,-1110 975.761,-1110 975.761,-1074 1127.76,-1074 1127.76,-1110"/>
<text text-anchor="middle" x="1051.76" y="-1089.2" font-family="Courier,monospace" font-size="11.00">MethodNotImplemented</text>
</g>
<!-- \\Teknoo\\States\\State\\Exception\\MethodNotImplemented&#45;&gt;\\Teknoo\\States\\Exception\\MethodNotImplemented -->
<g id="edge8" class="edge"><title>\\Teknoo\\States\\State\\Exception\\MethodNotImplemented&#45;&gt;\\Teknoo\\States\\Exception\\MethodNotImplemented</title>
<path fill="none" stroke="black" d="M975.635,-1094.06C952.799,-1091.26 928.959,-1084.47 910.761,-1070 858.633,-1028.54 906.164,-973.352 854.761,-931 839.317,-918.275 819.666,-910.894 800.005,-906.752"/>
<polygon fill="none" stroke="black" points="800.528,-903.289 790.059,-904.919 799.26,-910.173 800.528,-903.289"/>
</g>
<!-- \\Teknoo\\States\\State\\Exception\\InvalidArgument -->
<g id="node9" class="node"><title>\\Teknoo\\States\\State\\Exception\\InvalidArgument</title>
<polygon fill="none" stroke="black" points="1110.76,-1164 992.761,-1164 992.761,-1128 1110.76,-1128 1110.76,-1164"/>
<text text-anchor="middle" x="1051.76" y="-1143.2" font-family="Courier,monospace" font-size="11.00">InvalidArgument</text>
</g>
<!-- \\Teknoo\\States\\State\\Exception\\InvalidArgument&#45;&gt;\\Teknoo\\States\\Exception\\InvalidArgument -->
<g id="edge9" class="edge"><title>\\Teknoo\\States\\State\\Exception\\InvalidArgument&#45;&gt;\\Teknoo\\States\\Exception\\InvalidArgument</title>
<path fill="none" stroke="black" d="M992.545,-1146.24C965.365,-1143.66 933.968,-1136.53 910.761,-1119 866.674,-1085.69 896.183,-1044.57 854.761,-1008 834.607,-990.206 807.673,-978.614 782.814,-971.123"/>
<polygon fill="none" stroke="black" points="783.621,-967.714 773.045,-968.352 781.711,-974.448 783.621,-967.714"/>
</g>
<!-- \\Teknoo\\States\\State\\AbstractState -->
<g id="node10" class="node"><title>\\Teknoo\\States\\State\\AbstractState</title>
<polygon fill="none" stroke="black" points="1103.76,-1236 999.761,-1236 999.761,-1200 1103.76,-1200 1103.76,-1236"/>
<text text-anchor="start" x="1017.76" y="-1221.2" font-family="Courier,monospace" font-size="11.00">«abstract»</text>
<text text-anchor="start" x="1007.76" y="-1209.2" font-family="Courier,monospace" font-size="11.00">AbstractState</text>
</g>
<!-- \\Teknoo\\States\\State\\StateInterface -->
<g id="node11" class="node"><title>\\Teknoo\\States\\State\\StateInterface</title>
<polygon fill="none" stroke="black" points="769.261,-1236 658.261,-1236 658.261,-1200 769.261,-1200 769.261,-1236"/>
<text text-anchor="middle" x="713.761" y="-1215.2" font-family="Courier,monospace" font-size="11.00">StateInterface</text>
</g>
<!-- \\Teknoo\\States\\State\\AbstractState&#45;&gt;\\Teknoo\\States\\State\\StateInterface -->
<g id="edge10" class="edge"><title>\\Teknoo\\States\\State\\AbstractState&#45;&gt;\\Teknoo\\States\\State\\StateInterface</title>
<path fill="none" stroke="black" stroke-dasharray="1,5" d="M999.73,-1218C940.743,-1218 843.562,-1218 779.356,-1218"/>
<polygon fill="none" stroke="black" points="779.345,-1214.5 769.345,-1218 779.345,-1221.5 779.345,-1214.5"/>
</g>
<!-- \\Teknoo\\States\\State\\StateTrait -->
<g id="node12" class="node"><title>\\Teknoo\\States\\State\\StateTrait</title>
<polygon fill="none" stroke="black" points="1093.76,-1056 1009.76,-1056 1009.76,-1020 1093.76,-1020 1093.76,-1056"/>
<text text-anchor="middle" x="1051.76" y="-1035.2" font-family="Courier,monospace" font-size="11.00">StateTrait</text>
</g>
<!-- \\Teknoo\\States\\Proxy\\Exception\\IllegalName -->
<g id="node13" class="node"><title>\\Teknoo\\States\\Proxy\\Exception\\IllegalName</title>
<polygon fill="none" stroke="black" points="1097.26,-544 1006.26,-544 1006.26,-508 1097.26,-508 1097.26,-544"/>
<text text-anchor="middle" x="1051.76" y="-523.2" font-family="Courier,monospace" font-size="11.00">IllegalName</text>
</g>
<!-- \\Teknoo\\States\\Proxy\\Exception\\IllegalName&#45;&gt;\\Teknoo\\States\\Exception\\IllegalName -->
<g id="edge11" class="edge"><title>\\Teknoo\\States\\Proxy\\Exception\\IllegalName&#45;&gt;\\Teknoo\\States\\Exception\\IllegalName</title>
<path fill="none" stroke="black" d="M1006.14,-522.997C975.529,-523.43 936.027,-529.281 910.761,-553 838.456,-620.877 927.067,-701.123 854.761,-769 832.259,-790.125 798.464,-797.076 769.716,-798.65"/>
<polygon fill="none" stroke="black" points="769.258,-795.164 759.383,-799.003 769.497,-802.16 769.258,-795.164"/>
</g>
<!-- \\Teknoo\\States\\Proxy\\Exception\\StateNotFound -->
<g id="node14" class="node"><title>\\Teknoo\\States\\Proxy\\Exception\\StateNotFound</title>
<polygon fill="none" stroke="black" points="1103.76,-598 999.761,-598 999.761,-562 1103.76,-562 1103.76,-598"/>
<text text-anchor="middle" x="1051.76" y="-577.2" font-family="Courier,monospace" font-size="11.00">StateNotFound</text>
</g>
<!-- \\Teknoo\\States\\Proxy\\Exception\\StateNotFound&#45;&gt;\\Teknoo\\States\\Exception\\StateNotFound -->
<g id="edge12" class="edge"><title>\\Teknoo\\States\\Proxy\\Exception\\StateNotFound&#45;&gt;\\Teknoo\\States\\Exception\\StateNotFound</title>
<path fill="none" stroke="black" d="M999.452,-577.177C969.958,-578.357 934.223,-584.975 910.761,-607 838.456,-674.877 927.067,-755.123 854.761,-823 833.958,-842.53 803.503,-849.946 776.307,-852.198"/>
<polygon fill="none" stroke="black" points="775.838,-848.72 766.07,-852.823 776.265,-855.707 775.838,-848.72"/>
</g>
<!-- \\Teknoo\\States\\Proxy\\Exception\\MethodNotImplemented -->
<g id="node15" class="node"><title>\\Teknoo\\States\\Proxy\\Exception\\MethodNotImplemented</title>
<polygon fill="none" stroke="black" points="1127.76,-652 975.761,-652 975.761,-616 1127.76,-616 1127.76,-652"/>
<text text-anchor="middle" x="1051.76" y="-631.2" font-family="Courier,monospace" font-size="11.00">MethodNotImplemented</text>
</g>
<!-- \\Teknoo\\States\\Proxy\\Exception\\MethodNotImplemented&#45;&gt;\\Teknoo\\States\\Exception\\MethodNotImplemented -->
<g id="edge13" class="edge"><title>\\Teknoo\\States\\Proxy\\Exception\\MethodNotImplemented&#45;&gt;\\Teknoo\\States\\Exception\\MethodNotImplemented</title>
<path fill="none" stroke="black" d="M1041.86,-652.274C1018.39,-698.366 949.988,-819.752 854.761,-877 838.231,-886.938 818.794,-893.327 799.751,-897.408"/>
<polygon fill="none" stroke="black" points="798.992,-893.99 789.846,-899.338 800.33,-900.861 798.992,-893.99"/>
</g>
<!-- \\Teknoo\\States\\Proxy\\Exception\\AvailableSeveralMethodImplementations -->
<g id="node16" class="node"><title>\\Teknoo\\States\\Proxy\\Exception\\AvailableSeveralMethodImplementations</title>
<polygon fill="none" stroke="black" points="1184.76,-490 918.761,-490 918.761,-454 1184.76,-454 1184.76,-490"/>
<text text-anchor="middle" x="1051.76" y="-469.2" font-family="Courier,monospace" font-size="11.00">AvailableSeveralMethodImplementations</text>
</g>
<!-- \\Teknoo\\States\\Proxy\\Exception\\AvailableSeveralMethodImplementations&#45;&gt;\\Teknoo\\States\\Exception\\AvailableSeveralMethodImplementations -->
<g id="edge14" class="edge"><title>\\Teknoo\\States\\Proxy\\Exception\\AvailableSeveralMethodImplementations&#45;&gt;\\Teknoo\\States\\Exception\\AvailableSeveralMethodImplementations</title>
<path fill="none" stroke="black" d="M922.099,-490.111C918.086,-492.75 914.286,-495.702 910.761,-499 839.282,-565.872 925.549,-644.396 854.761,-712 852.528,-714.133 850.182,-716.129 847.74,-717.997"/>
<polygon fill="none" stroke="black" points="845.397,-715.357 839.086,-723.867 849.326,-721.15 845.397,-715.357"/>
</g>
<!-- \\Teknoo\\States\\Proxy\\Standard -->
<g id="node17" class="node"><title>\\Teknoo\\States\\Proxy\\Standard</title>
<polygon fill="none" stroke="black" points="1093.76,-436 1009.76,-436 1009.76,-400 1093.76,-400 1093.76,-436"/>
<text text-anchor="start" x="1017.76" y="-421.2" font-family="Courier,monospace" font-size="11.00">«abstract»</text>
<text text-anchor="start" x="1024.26" y="-409.2" font-family="Courier,monospace" font-size="11.00">Standard</text>
</g>
<!-- \\Teknoo\\States\\Proxy\\ProxyInterface -->
<g id="node18" class="node"><title>\\Teknoo\\States\\Proxy\\ProxyInterface</title>
<polygon fill="none" stroke="black" points="769.261,-436 658.261,-436 658.261,-400 769.261,-400 769.261,-436"/>
<text text-anchor="middle" x="713.761" y="-415.2" font-family="Courier,monospace" font-size="11.00">ProxyInterface</text>
</g>
<!-- \\Teknoo\\States\\Proxy\\Standard&#45;&gt;\\Teknoo\\States\\Proxy\\ProxyInterface -->
<g id="edge15" class="edge"><title>\\Teknoo\\States\\Proxy\\Standard&#45;&gt;\\Teknoo\\States\\Proxy\\ProxyInterface</title>
<path fill="none" stroke="black" stroke-dasharray="1,5" d="M1009.56,-418C952.139,-418 847.468,-418 779.546,-418"/>
<polygon fill="none" stroke="black" points="779.388,-414.5 769.388,-418 779.388,-421.5 779.388,-414.5"/>
</g>
<!-- \\Teknoo\\States\\Proxy\\SerializableTrait -->
<g id="node19" class="node"><title>\\Teknoo\\States\\Proxy\\SerializableTrait</title>
<polygon fill="none" stroke="black" points="1117.26,-382 986.261,-382 986.261,-346 1117.26,-346 1117.26,-382"/>
<text text-anchor="middle" x="1051.76" y="-361.2" font-family="Courier,monospace" font-size="11.00">SerializableTrait</text>
</g>
<!-- \\Teknoo\\States\\Proxy\\ArrayAccessTrait -->
<g id="node20" class="node"><title>\\Teknoo\\States\\Proxy\\ArrayAccessTrait</title>
<polygon fill="none" stroke="black" points="1114.26,-328 989.261,-328 989.261,-292 1114.26,-292 1114.26,-328"/>
<text text-anchor="middle" x="1051.76" y="-307.2" font-family="Courier,monospace" font-size="11.00">ArrayAccessTrait</text>
</g>
<!-- \\Teknoo\\States\\Proxy\\IteratorTrait -->
<g id="node21" class="node"><title>\\Teknoo\\States\\Proxy\\IteratorTrait</title>
<polygon fill="none" stroke="black" points="1103.76,-274 999.761,-274 999.761,-238 1103.76,-238 1103.76,-274"/>
<text text-anchor="middle" x="1051.76" y="-253.2" font-family="Courier,monospace" font-size="11.00">IteratorTrait</text>
</g>
<!-- \\Teknoo\\States\\Proxy\\MagicCallTrait -->
<g id="node22" class="node"><title>\\Teknoo\\States\\Proxy\\MagicCallTrait</title>
<polygon fill="none" stroke="black" points="1107.26,-220 996.261,-220 996.261,-184 1107.26,-184 1107.26,-220"/>
<text text-anchor="middle" x="1051.76" y="-199.2" font-family="Courier,monospace" font-size="11.00">MagicCallTrait</text>
</g>
<!-- \\Teknoo\\States\\Proxy\\ProxyTrait -->
<g id="node23" class="node"><title>\\Teknoo\\States\\Proxy\\ProxyTrait</title>
<polygon fill="none" stroke="black" points="1093.76,-166 1009.76,-166 1009.76,-130 1093.76,-130 1093.76,-166"/>
<text text-anchor="middle" x="1051.76" y="-145.2" font-family="Courier,monospace" font-size="11.00">ProxyTrait</text>
</g>
</g>
</svg>
